<svg width="184" height="216" viewBox="0 0 184 216" fill="none" xmlns="http://www.w3.org/2000/svg">
<path d="M174.49 91.0531L30.41 2.9231C27.3885 1.08108 23.9323 0.0737411 20.3942 0.00389678C16.8561 -0.0659475 13.3629 0.804205 10.271 2.52554C7.1791 4.24687 4.59928 6.75775 2.79485 9.80189C0.990422 12.846 0.0259929 16.3144 0 19.8531V196.113C0.0259929 199.652 0.990422 203.12 2.79485 206.164C4.59928 209.208 7.1791 211.719 10.271 213.441C13.3629 215.162 16.8561 216.032 20.3942 215.962C23.9323 215.892 27.3885 214.885 30.41 213.043L174.49 124.913C177.395 123.145 179.796 120.658 181.463 117.693C183.129 114.728 184.004 111.384 184.004 107.983C184.004 104.582 183.129 101.238 181.463 98.273C179.796 95.3079 177.395 92.8216 174.49 91.0531ZM24 188.833V27.1331L156.16 107.983L24 188.833Z" fill="black"/>
</svg>
