<svg width="286" height="179" viewBox="0 0 286 179" fill="none" xmlns="http://www.w3.org/2000/svg">
<g id="uimodel1 1" clip-path="url(#clip0_24_9)">
<path id="Vector" fill-rule="evenodd" clip-rule="evenodd" d="M256.499 0H74.9906L50.6391 23.3652C50.0804 23.9012 49.3362 24.2005 48.562 24.2005H9.45827L0 32.1282V167.734L9.45827 179H134.893L182.083 145.75C182.588 145.394 183.192 145.203 183.811 145.203H286V24.2005L256.499 0Z" fill="#42B5F7"/>
<path id="image" fill-rule="evenodd" clip-rule="evenodd" d="M256.499 0H74.9906L50.6391 23.3652C50.0804 23.9012 49.3362 24.2005 48.562 24.2005H9.45827L0 32.1282V167.734L9.45827 179H134.893L182.083 145.75C182.588 145.394 183.192 145.203 183.811 145.203H286V24.2005L256.499 0Z" fill="#7D6262" fill-opacity="0.48"/>
<path id="text" d="M283 179C284.657 179 286 177.657 286 176V149.727H183.843C183.204 149.727 182.582 149.931 182.067 150.309L143 179H283Z" fill="#42B5F7"/>
<path id="Vector_2" d="M283 179C284.657 179 286 177.657 286 176V149.727H183.843C183.204 149.727 182.582 149.931 182.067 150.309L143 179H283Z" fill="#7D6262" fill-opacity="0.48"/>
<path id="Vector_3" d="M283 178H146.051L182.659 151.115C183.003 150.863 183.417 150.727 183.843 150.727H285V176C285 177.105 284.105 178 283 178ZM181.507 144.933L134.576 178H9.92441L1 167.37V32.5948L9.82193 25.2005H48.562C49.5943 25.2005 50.5866 24.8014 51.3314 24.0867L75.3927 1H256.142L285 24.6736V144.203H183.811C182.986 144.203 182.181 144.458 181.507 144.933Z" stroke="#81FFE8" stroke-opacity="0.87" stroke-width="2"/>
</g>
<defs>
<clipPath id="clip0_24_9">
<rect width="286" height="179" fill="white"/>
</clipPath>
</defs>
</svg>
